Coordinates
version=1
nRows=6
nColumns=46
inDegrees=yes

Units are S.I. units (second, meters, Newtons, ...)
Angles are in degrees.

endheader
time	pelvis_tilt	pelvis_list	pelvis_rotation	pelvis_tx	pelvis_ty	pelvis_tz	bb_angle	bb_tx	bb_ty	bb_tz	hip_flexion_r	hip_adduction_r	hip_rotation_r	knee_angle_r	knee_angle_r_beta	ankle_angle_r	subtalar_angle_r	mtp_angle_r	crank_angle_r	hip_flexion_l	hip_adduction_l	hip_rotation_l	knee_angle_l	knee_angle_l_beta	ankle_angle_l	subtalar_angle_l	mtp_angle_l	crank_angle_l	lumbar_extension	lumbar_bending	lumbar_rotation	arm_flex_r	arm_add_r	arm_rot_r	elbow_flex_r	pro_sup_r	wrist_flex_r	wrist_dev_r	arm_flex_l	arm_add_l	arm_rot_l	elbow_flex_l	pro_sup_l	wrist_flex_l	wrist_dev_l
      0.00500000	    -17.61366050	      4.66551986	      2.33839462	      0.13874079	      1.11958720	     -0.27417037	      0.00000000	      0.50000000	      0.00000000	      0.25000000	     47.51159028	    -10.61316332	     -1.56900969	     57.99469705	      1.01219841	      5.05553199	     -6.27219250	      0.00000000	      0.00000000	     88.90469333	     -8.48846404	     -4.92716407	     97.21956901	      1.69680158	     19.31963005	      5.32744666	      0.00000000	      0.00000000	    -41.20350717	     -0.00850556	     -6.41209991	     80.47797187	     -5.23069871	     46.80832877	     22.41627292	     42.73697416	      0.00000000	      0.00000000	     80.27782356	    -14.83817251	     58.84513696	     22.46342782	     45.56435319	      0.00000000	      0.00000000
      0.01000000	    -17.69312683	      4.69392897	      2.30741741	      0.13877942	      1.11960248	     -0.27435105	      0.00000000	      0.50000000	      0.00000000	      0.25000000	     47.59460120	    -10.65136220	     -1.56326686	     58.00690031	      1.01241140	      5.01397032	     -6.19438083	      0.00000000	      0.00000000	     88.90001778	     -8.48491867	     -5.03151467	     97.09728892	      1.69466739	     19.28003533	      4.97385983	      0.00000000	      0.00000000	    -41.15733491	     -0.04427068	     -6.33456835	     80.22740411	     -5.51533869	     45.73474126	     23.44068333	     42.81289717	      0.00000000	      0.00000000	     79.94538017	    -14.94074521	     57.65367205	     23.42401384	     45.50453925	      0.00000000	      0.00000000
      0.01500000	    -17.66830303	      4.56277752	      2.16854599	      0.13864186	      1.11951356	     -0.27423204	      0.00000000	      0.50000000	      0.00000000	      0.25000000	     47.63403946	    -10.40469445	     -1.48038461	     58.15798618	      1.01504835	      5.09114563	     -6.36213039	      0.00000000	      0.00000000	     88.85318755	     -8.62464447	     -4.86034825	     97.01791478	      1.69328205	     19.50673926	      5.35355225	      0.00000000	      0.00000000	    -41.13810372	      0.01834340	     -6.23362773	     80.42481174	     -4.94238432	     45.44102771	     22.27247438	     42.55574125	      0.00000000	      0.00000000	     79.94002081	    -14.54931792	     57.10052640	     22.48868545	     45.17056715	      0.00000000	      0.00000000
      0.02000000	    -17.66813917	      4.52437370	      2.10707756	      0.13860930	      1.11968826	     -0.27434045	      0.00000000	      0.50000000	      0.00000000	      0.25000000	     47.64042168	    -10.32517457	     -1.44623435	     58.18672334	      1.01554990	      5.04288506	     -6.43841143	      0.00000000	      0.00000000	     88.77100547	     -8.66428888	     -4.85182806	     96.88983156	      1.69104657	     19.60692683	      5.37746492	      0.00000000	      0.00000000	    -41.16807203	      0.01633592	     -6.11969223	     80.47834590	     -5.33444753	     46.54883324	     22.55856299	     42.90650335	      0.00000000	      0.00000000	     80.08247594	    -14.51138538	     57.73807454	     22.29328625	     45.56121091	      0.00000000	      0.00000000
      0.02500000	    -17.78262054	      4.41080069	      2.02410447	      0.13856452	      1.11973697	     -0.27440703	      0.00000000	      0.50000000	      0.00000000	      0.25000000	     47.78453008	    -10.15030772	     -1.40057219	     58.21494485	      1.01604246	      4.93382392	     -6.47242216	      0.00000000	      0.00000000	     88.82528023	     -8.72598813	     -4.76046167	     96.76141488	      1.68880528	     19.72080965	      5.35537086	      0.00000000	      0.00000000	    -41.04925483	      0.10277139	     -6.04181801	     80.36696619	     -4.67407188	     44.14742159	     22.15717515	     42.65192957	      0.00000000	      0.00000000	     79.60854098	    -14.00989427	     54.62537858	     22.29709024	     45.06129670	      0.00000000	      0.00000000
      0.03000000	    -17.74594424	      4.41712470	      2.01462102	      0.13844857	      1.12003435	     -0.27444212	      0.00000000	      0.50000000	      0.00000000	      0.25000000	     47.78641134	    -10.14419677	     -1.36579059	     58.28261382	      1.01722351	      4.88035108	     -6.47316149	      0.00000000	      0.00000000	     88.68441407	     -8.70436788	     -4.77400596	     96.61086983	      1.68617777	     19.88740126	      5.52431929	      0.00000000	      0.00000000	    -41.13734046	      0.09504447	     -6.07025171	     80.30812127	     -4.70372191	     43.87063262	     22.51026585	     42.75618389	      0.00000000	      0.00000000	     79.60441370	    -14.07696090	     54.25815332	     22.52263846	     45.10026047	      0.00000000	      0.00000000
